4D 54 68 64 00 00 00 06
00 01 00 11 00 78 4D 54
72 6B 00 00 00 1E 00 FF
03 00 00 FF 51 03 07 A1
20 00 FF 58 04 04 02 18
08 00 FF 59 02 00 00 83
60 FF 2F 00 4D 54 72 6B
00 00 00 86 00 FF 03 00
78 B0 00 00 0A 20 00 0A
C0 00 0A B0 01 00 0A 07
64 0A 0A 40 0A 0B 7F 0A
40 00 0A 5B 28 0A 5D 00
0A 5E 00 82 04 90 3C 64
78 3C 00 00 3E 64 78 3E
00 00 40 64 78 40 00 00
41 64 78 41 00 00 43 64
78 43 00 00 45 64 78 45
00 00 47 64 78 47 00 00
48 64 78 48 00 83 60 3C
64 00 40 64 00 43 64 83
60 3C 00 00 40 00 00 43
00 83 60 3C 64 00 3F 64
00 43 64 83 60 3C 00 00
3F 00 00 43 00 83 60 FF
2F 00 4D 54 72 6B 00 00
00 2C 00 FF 03 00 78 B1
00 00 0A 20 00 0A C1 00
0A B1 01 00 0A 07 64 0A
0A 40 0A 0B 7F 0A 40 00
0A 5B 28 0A 5D 00 0A 5E
00 82 04 FF 2F 00 4D 54
72 6B 00 00 00 2C 00 FF
03 00 78 B2 00 00 0A 20
00 0A C2 00 0A B2 01 00
0A 07 64 0A 0A 40 0A 0B
7F 0A 40 00 0A 5B 28 0A
5D 00 0A 5E 00 82 04 FF
2F 00 4D 54 72 6B 00 00
00 2C 00 FF 03 00 78 B3
00 00 0A 20 00 0A C3 00
0A B3 01 00 0A 07 64 0A
0A 40 0A 0B 7F 0A 40 00
0A 5B 28 0A 5D 00 0A 5E
00 82 04 FF 2F 00 4D 54
72 6B 00 00 00 2C 00 FF
03 00 78 B4 00 00 0A 20
00 0A C4 00 0A B4 01 00
0A 07 64 0A 0A 40 0A 0B
7F 0A 40 00 0A 5B 28 0A
5D 00 0A 5E 00 82 04 FF
2F 00 4D 54 72 6B 00 00
00 2C 00 FF 03 00 78 B5
00 00 0A 20 00 0A C5 00
0A B5 01 00 0A 07 64 0A
0A 40 0A 0B 7F 0A 40 00
0A 5B 28 0A 5D 00 0A 5E
00 82 04 FF 2F 00 4D 54
72 6B 00 00 00 2C 00 FF
03 00 78 B6 00 00 0A 20
00 0A C6 00 0A B6 01 00
0A 07 64 0A 0A 40 0A 0B
7F 0A 40 00 0A 5B 28 0A
5D 00 0A 5E 00 82 04 FF
2F 00 4D 54 72 6B 00 00
00 2C 00 FF 03 00 78 B7
00 00 0A 20 00 0A C7 00
0A B7 01 00 0A 07 64 0A
0A 40 0A 0B 7F 0A 40 00
0A 5B 28 0A 5D 00 0A 5E
00 82 04 FF 2F 00 4D 54
72 6B 00 00 00 2C 00 FF
03 00 78 B8 00 00 0A 20
00 0A C8 00 0A B8 01 00
0A 07 64 0A 0A 40 0A 0B
7F 0A 40 00 0A 5B 28 0A
5D 00 0A 5E 00 82 04 FF
2F 00 4D 54 72 6B 00 00
00 2C 00 FF 03 00 78 B9
00 00 0A 20 00 0A C9 00
0A B9 01 00 0A 07 64 0A
0A 40 0A 0B 7F 0A 40 00
0A 5B 28 0A 5D 00 0A 5E
00 82 04 FF 2F 00 4D 54
72 6B 00 00 00 2C 00 FF
03 00 78 BA 00 00 0A 20
00 0A CA 00 0A BA 01 00
0A 07 64 0A 0A 40 0A 0B
7F 0A 40 00 0A 5B 28 0A
5D 00 0A 5E 00 82 04 FF
2F 00 4D 54 72 6B 00 00
00 2C 00 FF 03 00 78 BB
00 00 0A 20 00 0A CB 00
0A BB 01 00 0A 07 64 0A
0A 40 0A 0B 7F 0A 40 00
0A 5B 28 0A 5D 00 0A 5E
00 82 04 FF 2F 00 4D 54
72 6B 00 00 00 2C 00 FF
03 00 78 BC 00 00 0A 20
00 0A CC 00 0A BC 01 00
0A 07 64 0A 0A 40 0A 0B
7F 0A 40 00 0A 5B 28 0A
5D 00 0A 5E 00 82 04 FF
2F 00 4D 54 72 6B 00 00
00 2C 00 FF 03 00 78 BD
00 00 0A 20 00 0A CD 00
0A BD 01 00 0A 07 64 0A
0A 40 0A 0B 7F 0A 40 00
0A 5B 28 0A 5D 00 0A 5E
00 82 04 FF 2F 00 4D 54
72 6B 00 00 00 2C 00 FF
03 00 78 BE 00 00 0A 20
00 0A CE 00 0A BE 01 00
0A 07 64 0A 0A 40 0A 0B
7F 0A 40 00 0A 5B 28 0A
5D 00 0A 5E 00 82 04 FF
2F 00 4D 54 72 6B 00 00
00 2C 00 FF 03 00 78 BF
00 00 0A 20 00 0A CF 00
0A BF 01 00 0A 07 64 0A
0A 40 0A 0B 7F 0A 40 00
0A 5B 28 0A 5D 00 0A 5E
00 82 04 FF 2F 00 00